<svg xmlns="http://www.w3.org/2000/svg" width="962" height="464" viewBox="0 0 962 464">
    <g fill="none" fill-rule="evenodd" transform="translate(0 -498)">
        <circle cx="481" cy="481" r="481" fill="#12052B"/>
        <g fill="#FFF" transform="translate(85 498)">
            <circle cx="298" cy="147" r="1"/>
            <circle cx="63" cy="102" r="1"/>
            <circle cx="169" cy="118" r="1"/>
            <circle cx="300" cy="125" r="1"/>
            <circle cx="65" cy="80" r="1"/>
            <circle cx="552.5" cy="82.5" r="1.5" transform="rotate(180 552.5 82.5)"/>
            <circle cx="380.5" cy="376.5" r="1.5" transform="rotate(180 380.5 376.5)"/>
            <circle cx="790.5" cy="19.5" r="1.5" transform="rotate(180 790.5 19.5)"/>
            <circle cx="316" cy="46" r="1"/>
            <circle cx="81" cy="1" r="1"/>
            <circle cx="271.5" cy="156.5" r="1"/>
            <circle cx="36.5" cy="111.5" r="1"/>
            <circle cx="317.5" cy="212.5" r="1"/>
            <circle cx="300.5" cy="70.5" r="1"/>
            <circle cx="65.5" cy="25.5" r="1"/>
            <circle cx="557.5" cy="98.5" r="1"/>
            <circle cx="385.5" cy="392.5" r="1"/>
            <circle cx="528.5" cy="18.5" r="1"/>
            <circle cx="519.5" cy="93.5" r="1"/>
            <circle cx="347.5" cy="387.5" r="1"/>
            <circle cx="530.5" cy="156.5" r="1"/>
            <circle cx="260.5" cy="379.5" r="1"/>
            <circle cx="720.5" cy="96.5" r="1"/>
            <circle cx="530.5" cy="156.5" r="1"/>
            <circle cx="260.5" cy="379.5" r="1"/>
            <circle cx="720.5" cy="96.5" r="1"/>
            <circle cx="247.5" cy="18.5" r="1"/>
            <circle cx="240" cy="72" r="1"/>
            <circle cx="5" cy="27" r="1"/>
            <circle cx="257.5" cy="114.5" r="1"/>
            <circle cx="22.5" cy="69.5" r="1"/>
            <circle cx="235.5" cy="156.5" r="1"/>
            <circle cx=".5" cy="111.5" r="1"/>
            <circle cx="121.5" cy="193.5" r="1"/>
            <circle cx="248.5" cy="209.5" r="1"/>
            <circle cx="248.5" cy="209.5" r="1"/>
            <circle cx="467" cy="274" r="1"/>
            <circle cx="100" cy="295" r="1"/>
            <circle cx="456" cy="369" r="1"/>
            <circle cx="532" cy="230" r="1"/>
            <circle cx="136" cy="249" r="1"/>
            <circle cx="243" cy="253" r="1"/>
            <circle cx="471.895" cy="338.605" r="1" transform="rotate(-15 471.895 338.605)"/>
            <circle cx="243" cy="253" r="1"/>
            <circle cx="471.895" cy="338.605" r="1" transform="rotate(-15 471.895 338.605)"/>
            <circle cx="318" cy="269" r="1"/>
            <circle cx="548.48" cy="334.648" r="1" transform="rotate(-15 548.48 334.648)"/>
            <circle cx="648" cy="218" r="1"/>
            <circle cx="318" cy="269" r="1"/>
            <circle cx="548.48" cy="334.648" r="1" transform="rotate(-15 548.48 334.648)"/>
            <circle cx="648" cy="218" r="1"/>
            <circle cx="353.5" cy="283.5" r="1"/>
            <circle cx="586.524" cy="339.466" r="1" transform="rotate(-15 586.524 339.466)"/>
            <circle cx="683.5" cy="232.5" r="1"/>
            <circle cx="353.5" cy="283.5" r="1"/>
            <circle cx="586.524" cy="339.466" r="1" transform="rotate(-15 586.524 339.466)"/>
            <circle cx="683.5" cy="232.5" r="1"/>
            <circle cx="661.282" cy="307.464" r="1" transform="rotate(-15 661.282 307.464)"/>
            <circle cx="707.5" cy="209.5" r="1"/>
            <circle cx="661.282" cy="307.464" r="1" transform="rotate(-15 661.282 307.464)"/>
            <circle cx="707.5" cy="209.5" r="1"/>
            <circle cx="289.5" cy="57.5" r="1"/>
            <circle cx="54.5" cy="12.5" r="1"/>
            <circle cx="532.5" cy="87.5" r="1"/>
            <circle cx="360.5" cy="381.5" r="1"/>
            <circle cx="501.5" cy="165.5" r="1"/>
            <circle cx="231.5" cy="388.5" r="1"/>
            <circle cx="691.5" cy="105.5" r="1"/>
            <circle cx="341.5" cy="28.5" r="1"/>
            <circle cx="265" cy="272" r="1"/>
            <circle cx="528.063" cy="391.263" r="1" transform="rotate(-15 528.063 391.263)"/>
            <circle cx="265" cy="272" r="1"/>
            <circle cx="123" cy="113" r="1"/>
            <circle cx="272.5" cy="93.5" r="1"/>
            <circle cx="37.5" cy="48.5" r="1"/>
            <circle cx="560" cy="223" r="1"/>
            <circle cx="164" cy="242" r="1"/>
            <circle cx="559" cy="149" r="1"/>
            <circle cx="289" cy="372" r="1"/>
            <circle cx="750" cy="167" r="1"/>
            <circle cx="566" cy="20" r="1"/>
            <circle cx="569.5" cy="259.5" r="1"/>
            <circle cx="173.5" cy="278.5" r="1"/>
            <circle cx="390.5" cy="273.5" r="1"/>
            <circle cx="619.675" cy="320.231" r="1" transform="rotate(-15 619.675 320.23)"/>
            <circle cx="691.5" cy="220.5" r="1"/>
            <circle cx="439.5" cy="176.5" r="1"/>
            <circle cx="629.5" cy="116.5" r="1"/>
            <circle cx="499.5" cy="151.5" r="1"/>
            <circle cx="229.5" cy="374.5" r="1"/>
            <circle cx="689.5" cy="91.5" r="1"/>
        </g>
    </g>
</svg>
