<svg xmlns="http://www.w3.org/2000/svg" width="1369" height="276" viewBox="0 0 1369 276">
    <g fill="none" fill-rule="evenodd">
        <path fill="#12052B" d="M0 0H1369V276H0z"/>
        <circle cx="336" cy="152" r="1" fill="#FFF"/>
        <circle cx="93" cy="105" r="1" fill="#FFF"/>
        <circle cx="203" cy="122" r="1" fill="#FFF"/>
        <circle cx="338" cy="129" r="1" fill="#FFF"/>
        <circle cx="95" cy="83" r="1" fill="#FFF"/>
        <circle cx="598.5" cy="85.5" r="1.5" fill="#FFF" transform="rotate(180 598.5 85.5)"/>
        <circle cx="844.5" cy="20.5" r="1.5" fill="#FFF" transform="rotate(180 844.5 20.5)"/>
        <circle cx="354" cy="48" r="1" fill="#FFF"/>
        <circle cx="85" cy="1" r="1" fill="#FFF"/>
        <circle cx="308.5" cy="161.5" r="1" fill="#FFF"/>
        <circle cx="65.5" cy="115.5" r="1" fill="#FFF"/>
        <circle cx="338.5" cy="72.5" r="1" fill="#FFF"/>
        <circle cx="95.5" cy="26.5" r="1" fill="#FFF"/>
        <circle cx="603.5" cy="101.5" r="1" fill="#FFF"/>
        <circle cx="573.5" cy="19.5" r="1" fill="#FFF"/>
        <circle cx="564.5" cy="96.5" r="1" fill="#FFF"/>
        <circle cx="575.5" cy="161.5" r="1" fill="#FFF"/>
        <circle cx="882.367" cy="161.5" r="1" fill="#FFF"/>
        <circle cx="772.5" cy="99.5" r="1" fill="#FFF"/>
        <circle cx="575.5" cy="161.5" r="1" fill="#FFF"/>
        <circle cx="882.367" cy="161.5" r="1" fill="#FFF"/>
        <circle cx="772.5" cy="99.5" r="1" fill="#FFF"/>
        <circle cx="283.5" cy="19.5" r="1" fill="#FFF"/>
        <circle cx="276" cy="74" r="1" fill="#FFF"/>
        <circle cx="33" cy="28" r="1" fill="#FFF"/>
        <circle cx="293.5" cy="118.5" r="1" fill="#FFF"/>
        <circle cx="51.5" cy="71.5" r="1" fill="#FFF"/>
        <circle cx="271.5" cy="161.5" r="1" fill="#FFF"/>
        <circle cx="28.5" cy="115.5" r="1" fill="#FFF"/>
        <circle cx="153.5" cy="199.5" r="1" fill="#FFF"/>
        <circle cx="577" cy="238" r="1" fill="#FFF"/>
        <circle cx="883.867" cy="238" r="1" fill="#FFF"/>
        <circle cx="168" cy="257" r="1" fill="#FFF"/>
        <circle cx="697" cy="225" r="1" fill="#FFF"/>
        <circle cx="1003.867" cy="225" r="1" fill="#FFF"/>
        <circle cx="697" cy="225" r="1" fill="#FFF"/>
        <circle cx="1003.867" cy="225" r="1" fill="#FFF"/>
        <circle cx="733.5" cy="240.5" r="1" fill="#FFF"/>
        <circle cx="1040.367" cy="240.5" r="1" fill="#FFF"/>
        <circle cx="733.5" cy="240.5" r="1" fill="#FFF"/>
        <circle cx="1040.367" cy="240.5" r="1" fill="#FFF"/>
        <circle cx="758.5" cy="216.5" r="1" fill="#FFF"/>
        <circle cx="1065.367" cy="216.5" r="1" fill="#FFF"/>
        <circle cx="758.5" cy="216.5" r="1" fill="#FFF"/>
        <circle cx="1065.367" cy="216.5" r="1" fill="#FFF"/>
        <circle cx="327.5" cy="59.5" r="1" fill="#FFF"/>
        <circle cx="84.5" cy="12.5" r="1" fill="#FFF"/>
        <circle cx="577.5" cy="90.5" r="1" fill="#FFF"/>
        <circle cx="545.5" cy="170.5" r="1" fill="#FFF"/>
        <circle cx="742.5" cy="108.5" r="1" fill="#FFF"/>
        <circle cx="380.5" cy="29.5" r="1" fill="#FFF"/>
        <circle cx="1091.265" cy="7.265" r="1.033" fill="#FFF" transform="rotate(-15 1091.265 7.265)"/>
        <circle cx="155" cy="117" r="1" fill="#FFF"/>
        <circle cx="309.5" cy="96.5" r="1" fill="#FFF"/>
        <circle cx="66.5" cy="50.5" r="1" fill="#FFF"/>
        <circle cx="606" cy="230" r="1" fill="#FFF"/>
        <circle cx="912.867" cy="230" r="1" fill="#FFF"/>
        <circle cx="197" cy="250" r="1" fill="#FFF"/>
        <circle cx="605" cy="154" r="1" fill="#FFF"/>
        <circle cx="911.867" cy="154" r="1" fill="#FFF"/>
        <circle cx="803" cy="173" r="1" fill="#FFF"/>
        <circle cx="1109.867" cy="173" r="1" fill="#FFF"/>
        <circle cx="613" cy="21" r="1" fill="#FFF"/>
        <circle cx="616.5" cy="268.5" r="1" fill="#FFF"/>
        <circle cx="923.367" cy="268.5" r="1" fill="#FFF"/>
        <circle cx="742.5" cy="227.5" r="1" fill="#FFF"/>
        <circle cx="1049.367" cy="227.5" r="1" fill="#FFF"/>
        <circle cx="481.5" cy="182.5" r="1" fill="#FFF"/>
        <circle cx="678.5" cy="120.5" r="1" fill="#FFF"/>
        <circle cx="985.367" cy="120.5" r="1" fill="#FFF"/>
        <circle cx="543.5" cy="156.5" r="1" fill="#FFF"/>
        <circle cx="740.5" cy="94.5" r="1" fill="#FFF"/>
        <circle cx="1237" cy="192" r="1" fill="#FFF" transform="matrix(-1 0 0 1 2474 0)"/>
        <circle cx="1221" cy="111" r="1" fill="#FFF" transform="matrix(-1 0 0 1 2442 0)"/>
        <circle cx="1019.5" cy="124.559" r="1" fill="#FFF" transform="matrix(-1 0 0 1 2039 0)"/>
        <circle cx="1236.5" cy="135.5" r="1" fill="#FFF" transform="matrix(-1 0 0 1 2473 0)"/>
        <circle cx="1291.5" cy="82.5" r="1" fill="#FFF" transform="matrix(-1 0 0 1 2583 0)"/>
        <circle cx="1108.367" cy="28.559" r="1" fill="#FFF" transform="matrix(-1 0 0 1 2216.734 0)"/>
        <circle cx="1299" cy="137" r="1" fill="#FFF" transform="matrix(-1 0 0 1 2598 0)"/>
        <circle cx="1115.867" cy="83.059" r="1" fill="#FFF" transform="matrix(-1 0 0 1 2231.734 0)"/>
        <circle cx="1052" cy="37.059" r="1" fill="#FFF" transform="matrix(-1 0 0 1 2104 0)"/>
        <circle cx="1281.5" cy="181.5" r="1" fill="#FFF" transform="matrix(-1 0 0 1 2563 0)"/>
        <circle cx="1098.367" cy="127.559" r="1" fill="#FFF" transform="matrix(-1 0 0 1 2196.734 0)"/>
        <circle cx="1033.5" cy="80.559" r="1" fill="#FFF" transform="matrix(-1 0 0 1 2067 0)"/>
        <circle cx="1056.5" cy="124.559" r="1" fill="#FFF" transform="matrix(-1 0 0 1 2113 0)"/>
        <circle cx="1247.5" cy="122.5" r="1" fill="#FFF" transform="matrix(-1 0 0 1 2495 0)"/>
        <circle cx="1265.5" cy="159.5" r="1" fill="#FFF" transform="matrix(-1 0 0 1 2531 0)"/>
        <circle cx="1018.5" cy="59.559" r="1" fill="#FFF" transform="matrix(-1 0 0 1 2037 0)"/>
        <circle cx="1279.5" cy="245.5" r="1" fill="#FFF"/>
        <circle cx="1208.5" cy="242.5" r="1" fill="#FFF"/>
        <circle cx="1208.5" cy="242.5" r="1" fill="#FFF"/>
    </g>
</svg>
