<svg xmlns="http://www.w3.org/2000/svg" width="52" height="52" viewBox="0 0 52 52">
    <g fill="none" fill-rule="evenodd">
        <circle cx="26" cy="26" r="26" fill="#3B5998"/>
        <path fill="#FFF" fill-rule="nonzero" d="M23.578 38.703V24.61H21v-2.812h2.578v-1.969c0-1.864.508-3.302 1.524-4.312 1.015-1.01 2.44-1.516 4.273-1.516.365 0 .734.029 1.11.086.374.057.796.138 1.265.242l-.39 2.938c-.209-.042-.44-.078-.696-.11-.255-.031-.529-.047-.82-.047-.823 0-1.44.235-1.852.703-.411.47-.617 1.141-.617 2.016v1.969h3.438v2.812h-3.438v14.094h-3.797z"/>
    </g>
</svg>
