<svg xmlns="http://www.w3.org/2000/svg" width="52" height="52" viewBox="0 0 52 52">
    <g fill="none" fill-rule="evenodd">
        <circle cx="26" cy="26" r="26" fill="#9F87F3"/>
        <path fill="#FFF" fill-rule="nonzero" d="M19.81 20v8.59c0 1.42-.456 2.51-1.37 3.27-.913.76-2.108 1.14-3.582 1.14-1.446 0-2.617-.381-3.513-1.144C10.448 31.093 10 30.005 10 28.59V20h2.108v8.59c0 .898.249 1.573.746 2.025.497.452 1.165.677 2.004.677.867 0 1.558-.225 2.073-.677.515-.452.772-1.127.772-2.025V20h2.108zm4.624 7.499v5.316h-2.108V20h4.667c1.411 0 2.501.323 3.27.968.77.646 1.154 1.567 1.154 2.764 0 .663-.169 1.234-.507 1.712-.339.478-.832.86-1.48 1.148.712.23 1.224.603 1.536 1.123.312.519.469 1.157.469 1.914v1.065c0 .376.046.742.138 1.1.093.358.249.631.469.819v.202h-2.169c-.231-.193-.38-.499-.447-.915-.066-.417-.1-.825-.1-1.224v-1.03c0-.657-.184-1.179-.555-1.566-.37-.387-.879-.581-1.526-.581h-2.81zm0-1.716h2.446c.845 0 1.46-.165 1.848-.493.388-.329.581-.83.581-1.505 0-.646-.19-1.152-.572-1.519-.382-.366-.963-.55-1.744-.55h-2.559v4.067zm11.763 5.325H42v1.707h-7.911V20h2.108v11.108z"/>
    </g>
</svg>
