<svg xmlns="http://www.w3.org/2000/svg" width="112" height="16" viewBox="0 0 112 16">
    <g fill="none" fill-rule="evenodd">
        <g>
            <path fill="#FFF" d="M4.135 0c2.215 0 4.022 1.698 4.13 3.833l.005.2v5.933c0 2.16-1.74 3.924-3.929 4.03L4.135 14l-.206-.005c-2.12-.102-3.82-1.76-3.924-3.828L0 9.967V4.033C0 1.806 1.851 0 4.135 0zm7.784 0v4.746h1.946v2.373h-1.946V14H9.486V0h2.433zm31.135 0v4.746H45v2.373h-1.946V14h-2.432V0h2.432zM17.796 9.02v3.043h9.808V14H15.348V9.02h2.448zM39.406.24v2.135h-6.568v9.252h7.054v2.136h-9.487V.24h9zM4.135 2.136l-.147.006c-.82.068-1.474.704-1.549 1.503l-.007.152v6.406c0 .87.685 1.583 1.556 1.655l.147.006.147-.006c.82-.068 1.475-.704 1.549-1.503l.007-.152V3.797c0-.918-.763-1.661-1.703-1.661zM27.485 0v3.56h1.947v2.373h-1.946v4.23h-2.433V0h2.433zm-4.62.24v7.83h-8.027V.24h8.026zm-2.433 2.135H17.27v3.56h3.162v-3.56z" transform="translate(64 1)"/>
            <path fill="#8769F0" d="M48 13.5c0 .828-.672 1.5-1.5 1.5s-1.5-.672-1.5-1.5.672-1.5 1.5-1.5 1.5.672 1.5 1.5" transform="translate(64 1)"/>
        </g>
        <text fill="#9F87F3" font-family="Jalnan" font-size="16" font-weight="bold">
            <tspan x=".008" y="14">TAROT</tspan>
        </text>
    </g>
</svg>
